<?xml version="1.0" encoding="UTF-8" standalone="no"?>
<svg width="497px" height="333px" viewBox="0 0 497 333" version="1.1" xmlns="http://www.w3.org/2000/svg" xmlns:xlink="http://www.w3.org/1999/xlink">
    <!-- Generator: Sketch 40.2 (33826) - http://www.bohemiancoding.com/sketch -->
    <title>Bikes</title>
    <desc>Created with Sketch.</desc>
    <defs></defs>
    <g id="Page-1" stroke="none" stroke-width="1" fill="none" fill-rule="evenodd">
        <g id="Home-B-Copy" transform="translate(-720.000000, -226.000000)" stroke="#FFFFFF" stroke-width="1.5">
            <g id="Intro" transform="translate(36.000000, 227.000000)">
                <g id="Bikes" transform="translate(684.000000, 0.000000)">
                    <g id="bike-folding" transform="translate(354.998478, 189.145865)">
                        <path d="M141.189537,70.6651004 C141.189537,31.6390238 109.582003,0 70.593313,0 C31.6046229,0 0,31.6390238 0,70.6651004 C0,109.692634 31.6046229,141.330201 70.593313,141.330201 C109.582003,141.330201 141.189537,109.692634 141.189537,70.6651004 L141.189537,70.6651004 Z" id="Stroke-1"></path>
                        <path d="M91.8150466,72.8506189 C85.8399636,78.8316548 85.8399636,88.5251581 91.8150466,94.5047369 C97.788674,100.485773 107.473985,100.485773 113.446157,94.5047369" id="Stroke-3" stroke-linecap="round" stroke-linejoin="round"></path>
                        <path d="M101.967957,83.453298 L91.7004211,45.1673837" id="Stroke-5" stroke-linecap="round" stroke-linejoin="round"></path>
                        <path d="M53.7699247,72.9631731 C47.7962972,66.9850514 38.1109861,66.9850514 32.1359031,72.9631731 C26.1622757,78.944209 26.1622757,88.6377123 32.1359031,94.6172911 C38.1109861,100.598327 47.7962972,100.598327 53.7699247,94.6172911" id="Stroke-7" stroke-linecap="round" stroke-linejoin="round"></path>
                        <polyline id="Stroke-9" stroke-linecap="round" stroke-linejoin="round" points="61.133614 66.9409767 82.2348998 62.6515323 97.0699902 65.0497747"></polyline>
                        <path d="M43.6668672,83.8947728 L64.3795178,80.1356808" id="Stroke-11" stroke-linecap="round" stroke-linejoin="round"></path>
                        <path d="M94.353911,33.1727869 L88.7892966,33.1727869" id="Stroke-13" stroke-linecap="round" stroke-linejoin="round"></path>
                        <path d="M64.2121282,79.1813377 L53.8558028,37.8823218" id="Stroke-15" stroke-linecap="round" stroke-linejoin="round"></path>
                    </g>
                    <g id="bike-road" transform="translate(179.518395, 0.000000)">
                        <path d="M141.94643,71.363344 C141.94643,32.3378812 110.338896,0.699354943 71.351661,0.699354943 C32.3644264,0.699354943 0.756892364,32.3378812 0.756892364,71.363344 C0.756892364,110.390264 32.3644264,142.027333 71.351661,142.027333 C110.338896,142.027333 141.94643,110.390264 141.94643,71.363344 L141.94643,71.363344 Z" id="Stroke-2"></path>
                        <path d="M57.6971771,64.6518677 C50.0554754,57.002673 37.6686407,57.002673 30.026939,64.6518677 C22.3823261,72.3010624 22.3823261,84.7029567 30.026939,92.3521514 C37.6686407,100.001346 50.0554754,100.001346 57.6971771,92.3521514" id="Stroke-4" stroke-linecap="round" stroke-linejoin="round"></path>
                        <path d="M53.8991786,49.0372616 L90.4105018,49.0372616" id="Stroke-6" stroke-linecap="round" stroke-linejoin="round"></path>
                        <polyline id="Stroke-8" stroke-linecap="round" points="102.612189 78.4832144 88.453935 41.7743648 100.107166 41.7743648"></polyline>
                        <path d="M100.349226,41.7739277 C103.603863,41.7739277 106.234064,44.4096217 106.234064,47.6645361" id="Stroke-10" stroke-linecap="round" stroke-linejoin="round"></path>
                        <path d="M100.349226,53.5549988 C103.603863,53.5549988 106.234064,50.9193049 106.234064,47.6643904" id="Stroke-12" stroke-linecap="round" stroke-linejoin="round"></path>
                        <path d="M84.7586992,70.4527255 C81.5127954,77.6604524 82.8504571,86.428615 88.7673176,92.3512772 C96.4090193,100.000472 108.795854,100.000472 116.440467,92.3512772" id="Stroke-14" stroke-linecap="round" stroke-linejoin="round"></path>
                    </g>
                    <g id="bike-fixie" transform="translate(354.185863, 0.000000)">
                        <path d="M141.944974,71.4227468 C141.944974,32.3966702 110.338896,0.757646437 71.351661,0.757646437 C32.3629708,0.757646437 0.756892364,32.3966702 0.756892364,71.4227468 C0.756892364,110.45028 32.3629708,142.087847 71.351661,142.087847 C110.338896,142.087847 141.944974,110.45028 141.944974,71.4227468 L141.944974,71.4227468 Z" id="Stroke-1"></path>
                        <path d="M57.6971771,64.711165 C50.0554754,57.06185 37.6657296,57.06185 30.0225723,64.711165 C22.3808705,72.36048 22.3808705,84.7625693 30.0225723,92.4118843 C37.6657296,100.061199 50.0554754,100.061199 57.6971771,92.4118843" id="Stroke-3" stroke-linecap="round" stroke-linejoin="round"></path>
                        <path d="M84.7572436,70.5121141 C81.5127954,77.7199543 82.847546,86.4882548 88.765862,92.4110101 C96.4061082,100.060325 108.795854,100.060325 116.437556,92.4110101" id="Stroke-5" stroke-linecap="round" stroke-linejoin="round"></path>
                        <path d="M53.899033,49.0380328 L93.2530693,49.0380328" id="Stroke-7" stroke-linecap="round" stroke-linejoin="round"></path>
                        <polyline id="Stroke-9" stroke-linecap="round" stroke-linejoin="round" points="102.612043 78.5427292 90.5163212 40.5919278 80.1570847 40.5919278"></polyline>
                    </g>
                    <g id="bike-mixte" transform="translate(179.518395, 187.770492)">
                        <path d="M141.94643,71.4227468 C141.94643,32.3966702 110.340351,0.757646437 71.3502054,0.757646437 C32.3629708,0.757646437 0.756892364,32.3966702 0.756892364,71.4227468 C0.756892364,110.45028 32.3629708,142.087847 71.3502054,142.087847 C110.340351,142.087847 141.94643,110.45028 141.94643,71.4227468 L141.94643,71.4227468 Z" id="Stroke-1"></path>
                        <polyline id="Stroke-3" stroke-linecap="round" stroke-linejoin="round" points="102.610733 78.5597762 87.7377984 43.3598142 79.4687493 43.3510721"></polyline>
                        <path d="M92.0707161,53.6141216 L59.0294533,77.0487087" id="Stroke-5" stroke-linecap="round" stroke-linejoin="round"></path>
                        <path d="M57.6958671,64.711165 C50.0556209,57.06185 37.6658752,57.06185 30.0241734,64.711165 C22.3824717,72.36048 22.3824717,84.7625693 30.0241734,92.4118843 C37.6658752,100.061199 50.0556209,100.061199 57.6958671,92.4118843" id="Stroke-7" stroke-linecap="round" stroke-linejoin="round"></path>
                        <path d="M84.7588447,70.5121141 C81.5129409,77.7199543 82.8491471,86.4882548 88.7674631,92.4110101 C96.4077093,100.060325 108.796,100.060325 116.439157,92.4110101" id="Stroke-9" stroke-linecap="round" stroke-linejoin="round"></path>
                    </g>
                    <g id="bike-penny">
                        <path d="M141.918862,71.4216235 C141.918862,32.3961607 110.317467,0.757634521 71.3363485,0.757634521 C32.3566856,0.757634521 0.756745369,32.3961607 0.756745369,71.4216235 C0.756745369,110.448543 32.3566856,142.085613 71.3363485,142.085613 C110.317467,142.085613 141.918862,110.448543 141.918862,71.4216235 L141.918862,71.4216235 Z" id="Stroke-1"></path>
                        <path d="M86.8867382,33.5107577 L75.0262098,33.5107577" id="Stroke-3" stroke-linecap="round" stroke-linejoin="round"></path>
                        <path d="M46.6335602,90.0323328 C43.2689538,86.6623161 37.8174766,86.6623161 34.4543256,90.0323328 C31.0897192,93.3994354 31.0897192,98.8587749 34.4543256,102.225878 C37.8174766,105.594437 43.2689538,105.594437 46.6335602,102.225878" id="Stroke-5" stroke-linecap="round" stroke-linejoin="round"></path>
                        <path d="M56.7722018,63.628624 C51.9290314,74.3841202 53.925675,87.4678856 62.7519455,96.3088977 C74.1540608,107.722953 92.6375664,107.722953 104.039682,96.3088977" id="Stroke-7" stroke-linecap="round" stroke-linejoin="round"></path>
                        <path d="M41.8213873,79.3154467 C41.8213873,79.3154467 40.3020754,39.1258494 86.8870292,39.6226828" id="Stroke-9" stroke-linecap="round" stroke-linejoin="round"></path>
                    </g>
                    <g id="bike-bmx" transform="translate(0.000000, 188.050125)">
                        <path d="M141.918862,71.4216235 C141.918862,32.3961607 110.318922,0.757634521 71.3363485,0.757634521 C32.3566856,0.757634521 0.756745369,32.3961607 0.756745369,71.4216235 C0.756745369,110.448543 32.3566856,142.085613 71.3363485,142.085613 C110.318922,142.085613 141.918862,110.448543 141.918862,71.4216235 L141.918862,71.4216235 Z" id="Stroke-1"></path>
                        <path d="M91.9051242,72.2027156 C85.9312016,78.1836573 85.9312016,87.8770082 91.9051242,93.856493 C97.8790468,99.8374347 107.561022,99.8374347 113.533489,93.856493" id="Stroke-3" stroke-linecap="round" stroke-linejoin="round"></path>
                        <polyline id="Stroke-5" stroke-linecap="round" stroke-linejoin="round" points="102.590805 83.0291672 95.1063026 54.3614425 100.495203 54.3614425 95.1063026 33.3705953"></polyline>
                        <path d="M54.6632106,72.2027156 C48.6936539,66.2246878 39.0102237,66.2246878 33.0363012,72.2027156 C27.0638339,78.1836573 27.0638339,87.8770082 33.0363012,93.856493 C39.0102237,99.8374347 48.6936539,99.8374347 54.6632106,93.856493" id="Stroke-7" stroke-linecap="round" stroke-linejoin="round"></path>
                        <polyline id="Stroke-9" stroke-linecap="round" stroke-linejoin="round" points="43.5326505 83.0291672 64.2412786 79.2701344 96.4349729 59.4463357 59.1463448 63.4457718 64.2412786 79.2701344"></polyline>
                        <path d="M95.1070303,32.0537682 L89.5449518,32.0537682" id="Stroke-11" stroke-linecap="round" stroke-linejoin="round"></path>
                    </g>
                </g>
            </g>
        </g>
    </g>
</svg>