<?xml version="1.0" encoding="UTF-8" standalone="no"?>
<svg width="588px" height="528px" viewBox="0 0 588 528" version="1.1" xmlns="http://www.w3.org/2000/svg" xmlns:xlink="http://www.w3.org/1999/xlink">
    <!-- Generator: Sketch 40.3 (33839) - http://www.bohemiancoding.com/sketch -->
    <title>Bikes of London</title>
    <desc>Created with Sketch.</desc>
    <defs></defs>
    <g id="Page-1" stroke="none" stroke-width="1" fill="none" fill-rule="evenodd">
        <g id="Home-B-Copy-2" transform="translate(-779.000000, -246.000000)" stroke="#FEFEFE">
            <g id="Bikes-of-London" transform="translate(779.000000, 247.000000)">
                <g id="Bikes" transform="translate(25.000000, 0.000000)" stroke-width="2">
                    <path d="M243.049712,463.695188 C231.048912,451.704626 211.598992,451.704626 199.598192,463.695188 C187.593472,475.686869 187.593472,495.128724 199.598192,507.118726 C211.598992,519.109848 231.048912,519.109848 243.049712,507.118726" id="Stroke-1" stroke-linecap="round"></path>
                    <polyline id="Stroke-3" stroke-linecap="round" stroke-linejoin="round" points="328.328304 485.379818 314.828384 449.023705 313.702784 448.903397 307.879344 450.75335 303.157984 435.494873 314.280144 431.589043 306.846144 425.810877"></polyline>
                    <path d="M300.29,472.792078 C295.19176,484.088208 297.294,497.834155 306.5844,507.118614 C318.58408,519.109736 338.03736,519.109736 350.0404,507.118614" id="Stroke-5" stroke-linecap="round"></path>
                    <polygon id="Stroke-7" stroke-linecap="round" stroke-linejoin="round" points="260.066264 487.545987 305.567384 443.006097 253.405064 455.844974"></polygon>
                    <path d="M222.786896,486.440491 L260.066096,487.54621" id="Stroke-9" stroke-linecap="round" stroke-linejoin="round"></path>
                    <path d="M243.049712,463.695188 C231.048912,451.704626 211.598992,451.704626 199.598192,463.695188 C187.593472,475.686869 187.593472,495.128724 199.598192,507.118726 C211.598992,519.109848 231.048912,519.109848 243.049712,507.118726" id="Stroke-11" stroke-linecap="round"></path>
                    <polyline id="Stroke-13" stroke-linecap="round" stroke-linejoin="round" points="328.328304 485.379818 314.828384 449.023705 313.702784 448.903397 307.879344 450.75335 303.157984 435.494873 314.280144 431.589043 306.846144 425.810877"></polyline>
                    <path d="M300.29,472.792078 C295.19176,484.088208 297.294,497.834155 306.5844,507.118614 C318.58408,519.109736 338.03736,519.109736 350.0404,507.118614" id="Stroke-15" stroke-linecap="round"></path>
                    <polygon id="Stroke-17" stroke-linecap="round" stroke-linejoin="round" points="260.066264 487.545987 305.567384 443.006097 253.405064 455.844974"></polygon>
                    <path d="M222.786896,486.440491 L260.066096,487.54621" id="Stroke-19" stroke-linecap="round" stroke-linejoin="round"></path>
                    <polyline id="Stroke-21" stroke-linecap="round" stroke-linejoin="round" points="318.343448 55.4757651 297.536088 0.293888511 284.544648 0.279339574"></polyline>
                    <polyline id="Stroke-23" stroke-linecap="round" stroke-linejoin="round" points="301.102672 11.7486577 261.155632 55.4754853 226.082272 55.4754853"></polyline>
                    <path d="M247.808088,33.7643877 C235.808968,21.7715877 216.356808,21.7715877 204.357128,33.7643877 C192.351288,45.7560685 192.351288,65.1968047 204.357128,77.1907238 C216.356808,89.1784877 235.808968,89.1784877 247.808088,77.1907238" id="Stroke-25" stroke-linecap="round"></path>
                    <path d="M290.3052,42.8574728 C285.2092,54.15696 287.31032,67.9017877 296.60072,77.1907238 C308.60152,89.1784877 328.05592,89.1784877 340.0556,77.1907238" id="Stroke-27" stroke-linecap="round"></path>
                    <polyline id="Stroke-29" stroke-linecap="round" stroke-linejoin="round" points="306.763936 23.4920553 318.343616 23.4920553 318.343616 5.8604234"></polyline>
                    <polyline id="Stroke-31" stroke-linecap="round" stroke-linejoin="round" points="318.343448 55.4757651 297.536088 0.293888511 284.544648 0.279339574"></polyline>
                    <polyline id="Stroke-33" stroke-linecap="round" stroke-linejoin="round" points="301.102672 11.7486577 261.155632 55.4754853 226.082272 55.4754853"></polyline>
                    <path d="M247.808088,33.7643877 C235.808968,21.7715877 216.356808,21.7715877 204.357128,33.7643877 C192.351288,45.7560685 192.351288,65.1968047 204.357128,77.1907238 C216.356808,89.1784877 235.808968,89.1784877 247.808088,77.1907238" id="Stroke-35" stroke-linecap="round"></path>
                    <path d="M290.3052,42.8574728 C285.2092,54.15696 287.31032,67.9017877 296.60072,77.1907238 C308.60152,89.1784877 328.05592,89.1784877 340.0556,77.1907238" id="Stroke-37" stroke-linecap="round"></path>
                    <polyline id="Stroke-39" stroke-linecap="round" stroke-linejoin="round" points="306.763936 23.4920553 318.343616 23.4920553 318.343616 5.8604234"></polyline>
                    <path d="M105.296824,61.1824734 C99.444264,67.0289074 99.444264,76.5069798 105.296824,82.3539734 C111.148264,88.2015266 120.632984,88.2015266 126.483304,82.3539734" id="Stroke-41" stroke-linecap="round" stroke-linejoin="round"></path>
                    <path d="M115.051408,70.22363 L100.311648,23.0520619" id="Stroke-43" stroke-linecap="round" stroke-linejoin="round"></path>
                    <path d="M43.738936,61.1824734 C37.888616,55.3377181 28.402216,55.3377181 22.551336,61.1824734 C16.701016,67.0289074 16.701016,76.5069798 22.551336,82.3539734 C28.402216,88.2015266 37.888616,88.2015266 43.738936,82.3539734" id="Stroke-45" stroke-linecap="round" stroke-linejoin="round"></path>
                    <path d="M103.41612,10 L97.20796,10" id="Stroke-47" stroke-linecap="round" stroke-linejoin="round"></path>
                    <path d="M60.69316,67.0470377 L47.27052,19.5548334" id="Stroke-49" stroke-linecap="round" stroke-linejoin="round"></path>
                    <path d="M32.262184,72.248786 L60.693384,67.0469817" id="Stroke-51" stroke-linecap="round" stroke-linejoin="round"></path>
                    <path d="M103.41612,10 L97.20796,10" id="Stroke-53" stroke-linecap="round" stroke-linejoin="round"></path>
                    <polyline id="Stroke-55" stroke-linecap="round" stroke-linejoin="bevel" points="57.128592 53.4943119 84.752272 47.9103183 108.396032 50.1760353"></polyline>
                    <path d="M493.3402,266.49057 C485.3742,274.449397 485.3742,287.353744 493.3402,295.312572 C501.30844,303.272519 514.21868,303.272519 522.18468,295.312572" id="Stroke-69" stroke-linecap="round"></path>
                    <polyline id="Stroke-71" stroke-linecap="round" stroke-linejoin="round" points="507.590632 280.899053 497.610312 242.742789 504.795112 242.742789 497.610312 214.803236"></polyline>
                    <path d="M443.6752,266.49057 C435.71368,258.531742 422.79896,258.531742 414.83296,266.49057 C406.86696,274.449397 406.86696,287.353744 414.83296,295.312572 C422.79896,303.272519 435.71368,303.272519 443.6752,295.312572" id="Stroke-73" stroke-linecap="round"></path>
                    <polyline id="Stroke-75" stroke-linecap="round" stroke-linejoin="round" points="428.831896 280.899053 456.447176 275.897576 499.382936 249.511961 449.652696 254.834633 456.447176 275.897576"></polyline>
                    <path d="M497.6102,214 L490.19132,214" id="Stroke-77" stroke-linecap="round" stroke-linejoin="round"></path>
                    <polyline id="Stroke-79" stroke-linecap="round" stroke-linejoin="round" points="507.590632 280.899053 497.610312 242.742789 504.795112 242.742789 497.610312 214.803236"></polyline>
                    <path d="M443.6752,266.49057 C435.71368,258.531742 422.79896,258.531742 414.83296,266.49057 C406.86696,274.449397 406.86696,287.353744 414.83296,295.312572 C422.79896,303.272519 435.71368,303.272519 443.6752,295.312572" id="Stroke-81" stroke-linecap="round"></path>
                    <polyline id="Stroke-83" stroke-linecap="round" stroke-linejoin="round" points="428.831896 280.899053 456.447176 275.897576 499.382936 249.511961 449.652696 254.834633 456.447176 275.897576"></polyline>
                    <path d="M497.6102,214 L490.19132,214" id="Stroke-85" stroke-linecap="round" stroke-linejoin="round"></path>
                    <path d="M109.437184,164 L86.366864,164" id="Stroke-87" stroke-linecap="round" stroke-linejoin="round"></path>
                    <path d="M31.138936,272.58137 C24.597016,266.042183 13.991176,266.042183 7.448136,272.58137 C0.903416,279.119438 0.903416,289.716659 7.448136,296.255846 C13.991176,302.793355 24.597016,302.793355 31.138936,296.255846" id="Stroke-89" stroke-linecap="round"></path>
                    <path d="M50.861408,221.32295 C41.439968,242.201233 45.323568,267.604794 62.493168,284.767503 C84.671408,306.927771 120.623968,306.927771 142.808368,284.767503" id="Stroke-91" stroke-linecap="round"></path>
                    <path d="M21.779712,251.776055 C21.779712,251.776055 18.822352,173.75067 109.437072,174.715377" id="Stroke-93" stroke-linecap="round"></path>
                    <path d="M109.437184,164 L86.366864,164" id="Stroke-95" stroke-linecap="round" stroke-linejoin="round"></path>
                    <path d="M31.138936,272.58137 C24.597016,266.042183 13.991176,266.042183 7.448136,272.58137 C0.903416,279.119438 0.903416,289.716659 7.448136,296.255846 C13.991176,302.793355 24.597016,302.793355 31.138936,296.255846" id="Stroke-97" stroke-linecap="round"></path>
                    <path d="M50.861408,221.32295 C41.439968,242.201233 45.323568,267.604794 62.493168,284.767503 C84.671408,306.927771 120.623968,306.927771 142.808368,284.767503" id="Stroke-99" stroke-linecap="round"></path>
                    <path d="M21.779712,251.776055 C21.779712,251.776055 18.822352,173.75067 109.437072,174.715377" id="Stroke-101" stroke-linecap="round"></path>
                    <path d="M445.440488,464.798501 C433.739848,453.106193 414.766488,453.106193 403.060808,464.798501 C391.357928,476.493048 391.357928,495.453669 403.060808,507.148776 C414.766488,518.843322 433.739848,518.843322 445.440488,507.148776" id="Stroke-103" stroke-linecap="round"></path>
                    <path d="M486.885976,473.669155 C481.917096,484.688296 483.964456,498.0957 493.025256,507.148496 C504.728136,518.843043 523.703736,518.843043 535.404936,507.148496" id="Stroke-105" stroke-linecap="round"></path>
                    <polyline id="Stroke-107" stroke-linejoin="round" points="502.652384 442.146087 460.919504 491.068564 438.658384 390.873398 489.097584 390.873398"></polyline>
                    <polyline id="Stroke-109" stroke-linecap="round" points="514.230776 485.945939 484.658856 374.086444 502.506616 374.086444"></polyline>
                    <path d="M449.978448,433.682523 L491.487328,399.794694" id="Stroke-111" stroke-linecap="round"></path>
                    <path d="M448.169368,433 L500.414568,433" id="Stroke-113" stroke-linecap="round"></path>
                    <path d="M53.042384,463.670063 C41.039344,451.679501 21.589424,451.679501 9.588624,463.670063 C-2.416096,475.661184 -2.416096,495.10248 9.588624,507.094161 C21.589424,519.084723 41.039344,519.084723 53.042384,507.094161" id="Stroke-115" stroke-linecap="round"></path>
                    <path d="M95.536752,472.764771 C90.439632,484.06258 92.542992,497.807407 101.832272,507.094105 C113.831952,519.084667 133.285232,519.084667 145.288272,507.094105" id="Stroke-117" stroke-linecap="round"></path>
                    <polyline id="Stroke-119" stroke-linecap="round" stroke-linejoin="round" points="123.57612 485.353014 105.25908 431.723957 121.31988 431.723957 127.5762 424.495933"></polyline>
                    <path d="M53.042384,463.670063 C41.039344,451.679501 21.589424,451.679501 9.588624,463.670063 C-2.416096,475.661184 -2.416096,495.10248 9.588624,507.094161 C21.589424,519.084723 41.039344,519.084723 53.042384,507.094161" id="Stroke-121" stroke-linecap="round"></path>
                    <path d="M95.536752,472.764771 C90.439632,484.06258 92.542992,497.807407 101.832272,507.094105 C113.831952,519.084667 133.285232,519.084667 145.288272,507.094105" id="Stroke-123" stroke-linecap="round"></path>
                    <polyline id="Stroke-125" stroke-linecap="round" stroke-linejoin="round" points="123.57612 485.353014 105.25908 431.723957 121.31988 431.723957 127.5762 424.495933"></polyline>
                    <path d="M53.042384,435.047046 L108.894544,443.236978" id="Stroke-127" stroke-linecap="round" stroke-linejoin="round"></path>
                    <path d="M514.499856,55.4752615 L491.145056,0.294504043" id="Stroke-129" stroke-linecap="round" stroke-linejoin="round"></path>
                    <path d="M498.767384,18.3050798 L422.242264,55.4736947" id="Stroke-131" stroke-linecap="round"></path>
                    <path d="M443.968304,33.7643877 C431.969744,21.773826 412.513104,21.773826 400.512304,33.7643877 C388.513184,45.7555089 388.513184,65.1968047 400.512304,77.1884855 C412.513104,89.1790472 431.969744,89.1790472 443.968304,77.1884855" id="Stroke-133" stroke-linecap="round"></path>
                    <path d="M486.46704,42.8596551 C481.36992,54.1574636 483.4688,67.9017317 492.76144,77.1884296 C504.75776,89.1789913 524.21216,89.1789913 536.21408,77.1884296" id="Stroke-135" stroke-linecap="round"></path>
                    <path d="M491.145,0 L508.99276,0" id="Stroke-137" stroke-linecap="round"></path>
                    <path d="M508.992816,0.29433617 C513.974016,0.29433617 518.003216,4.32215319 518.003216,9.29844894" id="Stroke-139" stroke-linecap="round"></path>
                    <path d="M508.992816,18.3050798 C513.974016,18.3050798 518.003216,14.2750245 518.003216,9.29816915" id="Stroke-141" stroke-linecap="round"></path>
                    <path d="M514.499856,55.4752615 L491.145056,0.294504043" id="Stroke-143" stroke-linecap="round" stroke-linejoin="round"></path>
                    <path d="M498.767384,18.3050798 L422.242264,55.4736947" id="Stroke-145" stroke-linecap="round"></path>
                    <path d="M443.968304,33.7643877 C431.969744,21.773826 412.513104,21.773826 400.512304,33.7643877 C388.513184,45.7555089 388.513184,65.1968047 400.512304,77.1884855 C412.513104,89.1790472 431.969744,89.1790472 443.968304,77.1884855" id="Stroke-147" stroke-linecap="round"></path>
                    <path d="M486.46704,42.8596551 C481.36992,54.1574636 483.4688,67.9017317 492.76144,77.1884296 C504.75776,89.1789913 524.21216,89.1789913 536.21408,77.1884296" id="Stroke-149" stroke-linecap="round"></path>
                    <path d="M491.145,0 L508.99276,0" id="Stroke-151" stroke-linecap="round"></path>
                    <path d="M508.992816,0.29433617 C513.974016,0.29433617 518.003216,4.32215319 518.003216,9.29844894" id="Stroke-153" stroke-linecap="round"></path>
                    <path d="M508.992816,18.3050798 C513.974016,18.3050798 518.003216,14.2750245 518.003216,9.29816915" id="Stroke-155" stroke-linecap="round"></path>
                    <path d="M249.556408,250.065604 C237.855208,238.372736 218.881288,238.372736 207.176728,250.065604 C195.472728,261.759591 195.472728,280.720772 207.176728,292.415319 C218.881288,304.110425 237.855208,304.110425 249.556408,292.415319" id="Stroke-157" stroke-linecap="round"></path>
                    <path d="M291.001896,258.935755 C286.033016,269.955455 288.079256,283.362299 297.140056,292.415095 C308.842936,304.110201 327.818536,304.110201 339.520856,292.415095" id="Stroke-159" stroke-linecap="round"></path>
                    <path d="M243.740976,227 L299.659216,227" id="Stroke-161" stroke-linecap="round"></path>
                    <polyline id="Stroke-163" stroke-linecap="round" points="318.345632 271.212483 296.660752 215.0922 314.508512 215.0922"></polyline>
                    <path d="M314.881752,215.0922 C319.862392,215.0922 323.892152,219.119457 323.892152,224.095753" id="Stroke-165" stroke-linecap="round"></path>
                    <path d="M314.881752,233.10244 C319.862392,233.10244 323.892152,229.072944 323.892152,224.095529" id="Stroke-167" stroke-linecap="round"></path>
                    <path d="M249.556408,250.065604 C237.855208,238.372736 218.881288,238.372736 207.176728,250.065604 C195.472728,261.759591 195.472728,280.720772 207.176728,292.415319 C218.881288,304.110425 237.855208,304.110425 249.556408,292.415319" id="Stroke-169" stroke-linecap="round"></path>
                    <path d="M291.001896,258.935755 C286.033016,269.955455 288.079256,283.362299 297.140056,292.415095 C308.842936,304.110201 327.818536,304.110201 339.520856,292.415095" id="Stroke-171" stroke-linecap="round"></path>
                    <path d="M243.740976,227 L299.659216,227" id="Stroke-173" stroke-linecap="round"></path>
                    <polyline id="Stroke-175" stroke-linecap="round" points="318.345632 271.212483 296.660752 215.0922 314.508512 215.0922"></polyline>
                    <path d="M314.881752,233.10244 C319.862392,233.10244 323.892152,229.072944 323.892152,224.095529" id="Stroke-177" stroke-linecap="round"></path>
                </g>
                <g id="Rules" transform="translate(0.000000, 93.000000)">
                    <path d="M8.40056,1.5 L196.24304,1.5" id="Stroke-57"></path>
                    <path d="M204.1802,1.5 L392.02268,1.5" id="Stroke-59"></path>
                    <path d="M399.959504,1.5 L587.801424,1.5" id="Stroke-61"></path>
                    <path d="M0,217.5 L185.19704,217.5" id="Stroke-63"></path>
                    <path d="M201,217.5 L386.19704,217.5" id="Stroke-65"></path>
                    <path d="M402,217.5 L587.19704,217.5" id="Stroke-67"></path>
                    <path d="M0,433.5 L185.19704,433.5" id="Stroke-63-Copy"></path>
                    <path d="M201,433.5 L386.19704,433.5" id="Stroke-65-Copy"></path>
                    <path d="M402,433.5 L587.19704,433.5" id="Stroke-67-Copy"></path>
                </g>
            </g>
        </g>
    </g>
</svg>